<svg xmlns="http://www.w3.org/2000/svg" width="48" height="48" viewBox="0 0 48 48" fill="none">
	<rect width="48" height="48" rx="12" fill="#F7FAFF"/>
	<path d="M24 8L37 13V24C37 32.9 31.5 40.5 24 44C16.5 40.5 11 32.9 11 24V13L24 8Z" fill="#245CC9" stroke="#173A72" stroke-width="1.8" stroke-linejoin="round"/>
	<path d="M18.3 16.5H23.7C26.5 16.5 28.5 18 28.5 20.5C28.5 22.4 27.4 23.8 25.7 24.3L28.6 30H25.7L23.1 25.3H21V30H18.3V16.5ZM21 22.9H23.5C25 22.9 25.9 22.2 25.9 20.9C25.9 19.6 25 18.9 23.5 18.9H21V22.9Z" fill="#F8FBFF"/>
	<circle cx="31.8" cy="12.2" r="2.1" fill="#F4A300"/>
</svg>