<svg width="128" height="128" viewBox="0 0 128 128" fill="none" xmlns="http://www.w3.org/2000/svg">
  <defs>
    <linearGradient id="shieldGrad" x1="24" y1="18" x2="104" y2="112" gradientUnits="userSpaceOnUse">
      <stop stop-color="#0F2D57"/>
      <stop offset="1" stop-color="#245CC9"/>
    </linearGradient>
    <linearGradient id="rGrad" x1="44" y1="34" x2="78" y2="92" gradientUnits="userSpaceOnUse">
      <stop stop-color="#F8FBFF"/>
      <stop offset="1" stop-color="#DCEBFF"/>
    </linearGradient>
    <linearGradient id="accentGrad" x1="86" y1="20" x2="106" y2="48" gradientUnits="userSpaceOnUse">
      <stop stop-color="#FFD34D"/>
      <stop offset="1" stop-color="#F4A300"/>
    </linearGradient>
  </defs>
  <rect x="4" y="4" width="120" height="120" rx="26" fill="#F7FAFF"/>
  <path
    d="M64 18L96 30V57C96 79 82.5 98 64 108C45.5 98 32 79 32 57V30L64 18Z"
    fill="url(#shieldGrad)"
    stroke="#173A72"
    stroke-width="3.5"
    stroke-linejoin="round"
  />
  <path
    d="M51 44H64.5C71.8 44 76.8 48.2 76.8 54.8C76.8 59.9 73.8 63.4 69.1 65L76.4 81H67.7L61.1 66.8H56.8V81H51V44ZM56.8 61.5H63.9C67.5 61.5 70 59.9 70 56C70 52.1 67.5 50.5 63.9 50.5H56.8V61.5Z"
    fill="url(#rGrad)"
  />
  <circle cx="86.5" cy="31.5" r="5.5" fill="url(#accentGrad)"/>
</svg>
